inDegrees=no
num_controls=7
num_derivatives=13
num_iterations=160
num_multipliers=7
num_parameters=0
num_slacks=7
num_states=26
objective=0.516794
objective_accelerations=0.039634
objective_balance=0.002186
objective_effort=0.043549
objective_height=0.419795
objective_ligament=0.011630
solver_duration=2117.631836
status=Solve_Succeeded
success=true
DataType=double
version=3
OpenSimVersion=4.5
endheader
time	/jointset/ground_pelvis/pelvis_tilt/value	/jointset/ground_pelvis/pelvis_tx/value	/jointset/ground_pelvis/pelvis_ty/value	/jointset/hip_l/hip_flexion_l/value	/jointset/hip_l/hip_adduction_l/value	/jointset/hip_l/hip_rotation_l/value	/jointset/back/lumbar_extension/value	/jointset/patellofemoral_l/patellar_flexion_l/value	/jointset/knee_l/knee_flexion_l/value	/jointset/knee_l/knee_adduction_l/value	/jointset/knee_l/knee_rotation_l/value	/jointset/ankle_l/ankle_angle_l/value	/jointset/subtalar_l/subtalar_angle_l/value	/jointset/ground_pelvis/pelvis_tilt/speed	/jointset/ground_pelvis/pelvis_tx/speed	/jointset/ground_pelvis/pelvis_ty/speed	/jointset/hip_l/hip_flexion_l/speed	/jointset/hip_l/hip_adduction_l/speed	/jointset/hip_l/hip_rotation_l/speed	/jointset/back/lumbar_extension/speed	/jointset/patellofemoral_l/patellar_flexion_l/speed	/jointset/knee_l/knee_flexion_l/speed	/jointset/knee_l/knee_adduction_l/speed	/jointset/knee_l/knee_rotation_l/speed	/jointset/ankle_l/ankle_angle_l/speed	/jointset/subtalar_l/subtalar_angle_l/speed	/forceset/tau_hip_flexion_l	/forceset/tau_hip_adduction_l	/forceset/tau_hip_rotation_l	/forceset/tau_knee_flexion_l	/forceset/tau_ankle_angle_l	/forceset/tau_subtalar_angle_l	/forceset/tau_lumbar_extension	lambda_cid13_p0	lambda_cid13_p1	lambda_cid13_p2	lambda_cid13_p3	lambda_cid13_p4	lambda_cid13_p5	lambda_cid14_p0	/jointset/ground_pelvis/pelvis_tilt/accel	/jointset/ground_pelvis/pelvis_tx/accel	/jointset/ground_pelvis/pelvis_ty/accel	/jointset/hip_l/hip_flexion_l/accel	/jointset/hip_l/hip_adduction_l/accel	/jointset/hip_l/hip_rotation_l/accel	/jointset/back/lumbar_extension/accel	/jointset/patellofemoral_l/patellar_flexion_l/accel	/jointset/knee_l/knee_flexion_l/accel	/jointset/knee_l/knee_adduction_l/accel	/jointset/knee_l/knee_rotation_l/accel	/jointset/ankle_l/ankle_angle_l/accel	/jointset/subtalar_l/subtalar_angle_l/accel	gamma_cid13_p0	gamma_cid13_p1	gamma_cid13_p2	gamma_cid13_p3	gamma_cid13_p4	gamma_cid13_p5	gamma_cid14_p0
0	-0.03681882331927454	0.05667571836876399	0.9203416553866058	0.3085816938045678	-0.2956389182329255	-0.3015755401364415	-0.3879492264334186	0.2499269421184907	0.2499269421184919	-0.1745329125643835	-0.1745015595152495	-0.0008036623358878681	0.0004388083941974003	0	0	0	0	0	0	0	0	0	0	0	0	0	0.0635333872402442	-0.0388455110255734	-0.01778717839281733	-0.2252658528155762	0.1555490422513459	-0.009919945924621813	0.008094984939503655	6.081235171560618	0.4012653508526198	2.728181009648682	22.13622427832557	-628.191058278728	-74.34761666109422	-23.19590519941062	-1.290004851674958	-2.2125240386321	-0.8490156578593981	8.796889446899218	-0.5687050805123356	2.650156006526742	-7.080376639538976	7.56211604910453	7.56211604910406	1.241996564526679	-0.06857181016525465	0.5012849620038353	-0.4487289189334122	8.828752637473035e-09	1.019750719889824e-07	3.601379647274958e-08	-1.485542729129769e-08	1.120793038054242e-07	2.081676073449807e-08	2.801034631497341e-09
0.01	-0.03687936512262875	0.05656675118290797	0.9203001910296252	0.3090102612147455	-0.2956674246491798	-0.3014427820205321	-0.3883005974051033	0.2502971351516581	0.2502971351516532	-0.1744737582309437	-0.1745023283491053	-0.0007796826047494524	0.00041592002875434	-0.0120178030578912	-0.02164623007398484	-0.008252265295269583	0.08521082926052302	-0.005656450696738218	0.02642249908101998	-0.06968761504253428	0.07367029161258787	0.07367029161258511	0.01179506622792914	-0.0001378213716695213	0.00482970000644719	-0.004518114324806258	0.05582456813806748	-0.04258116217774397	-0.01674827488548319	-0.2181351337148707	0.1461354445805012	-0.001280983170845096	0.01511951748117995	3.266437910620929	-2.853575293460546	3.242282701239678	22.11768480881925	-631.153107987951	-80.42747941028371	-23.20015470560201	-1.144090195918894	-2.118594398209681	-0.8072186343706655	8.307778131203778	-0.5574107476160457	2.618927444958324	-6.824967042490172	7.214237904064468	7.214237904064343	1.142911603001582	0.01600765442803441	0.4788792363646687	-0.4444394986271411	-8.943475792598403e-09	1.126936715259733e-07	7.455087265579256e-08	8.053678565912003e-09	2.074882608915064e-08	-5.522428612294196e-10	7.871478861346334e-10
0.02	-0.03705736938917537	0.05624573731502657	0.9201774266858899	0.3102758566106457	-0.2957511547090743	-0.3010496727965996	-0.3893312471483891	0.2513929815382913	0.251392981538291	-0.1742977232450119	-0.1745039964056664	-0.0007063925302666656	0.0003496331581886417	-0.02349249263869588	-0.04240933640507687	-0.01625999735095244	0.1674055971440415	-0.01104472872793735	0.05207022160478767	-0.1358557543202532	0.1451306706943174	0.1451306706943144	0.02337613049888113	-0.0001798445395045013	0.009862068668875587	-0.008679701024528233	0.04811574903590583	-0.04631681332990768	-0.01570937137809934	-0.2110044146141632	0.1367218469096606	0.007357979582939466	0.0221440500228633	0.5101939283780863	-6.116312596970388	3.754952260752045	22.05584849415624	-633.2072422925427	-86.43279953832807	-23.21262675687499	-1.181382156257685	-2.035899290053508	-0.8001090099420526	8.193677171498306	-0.5150705474045227	2.495200695076287	-6.376481486575917	7.120133542932856	7.120133542932897	1.199196173131241	-0.04941216939834123	0.5418186932001046	-0.3774233939165498	-2.671570422266984e-08	1.234122710629642e-07	1.130879488388356e-07	3.09627844231217e-08	-7.058165162712295e-08	-2.192124645695691e-08	-1.226738859228074e-09
0.03	-0.03734801230066844	0.05572145429330636	0.9199755189252867	0.3123493957773913	-0.295887685844451	-0.3004040900282721	-0.3910075525105655	0.2531929865004936	0.2531929865004957	-0.1740074581229118	-0.1745059802626525	-0.0005817951031149009	0.0002432334981058748	-0.0345815685728101	-0.06230482978367374	-0.02410548229374954	0.246870021789269	-0.01624968929921566	0.07692263612408255	-0.1990030854744005	0.214550087330477	0.2145500873304813	0.03457152493856339	-0.0002209688858798448	0.01508602550255632	-0.01257697438853726	0.04397552461086273	-0.04283032337011599	-0.01544611281228876	-0.2096457372133134	0.1380076301785192	0.005567398939189356	0.02633642367812438	0.8331459273630435	-5.410139734494082	3.659422570612635	20.64083317197878	-634.4689330918866	-84.34107532514699	-23.23279336813169	-1.064495185986803	-1.945002353280953	-0.7743718503996612	7.75798805692679	-0.5214681161029492	2.461695023858957	-6.223524033777848	6.804810815040841	6.804810815041895	1.063936123211908	0.01794739829325903	0.5169778911421004	-0.3924233978845416	-4.195184387959321e-08	1.01614383616572e-07	1.622459548178206e-07	4.242502217003906e-08	-1.343515373002792e-07	-5.167298069949355e-08	-9.159093302601595e-09
0.04	-0.03774791094630104	0.0550024907394966	0.9196956355924653	0.3152046117797666	-0.2960759184463631	-0.2995136964760508	-0.3933032642050722	0.2556775786472764	0.255677578647274	-0.1736083940476479	-0.174508493369988	-0.0004040993650882672	9.855228633473246e-05	-0.0453436394668689	-0.08134544282298364	-0.03185511179460951	0.3237409642701684	-0.02138502203503148	0.1010323783834927	-0.2597370207863	0.2820481076099692	0.2820481076099803	0.04513592113125299	-0.000285694610239462	0.02048173084383963	-0.01633601136220442	0.03983530018580255	-0.03934383341032603	-0.0151828542465029	-0.2082870598124713	0.1392934134473738	0.003776818295436373	0.03052879733337649	1.209888208486545	-4.710933165114777	3.562202313971049	19.1792289957613	-634.9051618057964	-82.17867630200125	-23.26009886697108	-1.115981148246625	-1.864923222196091	-0.7809379215546283	7.674980738632672	-0.5011449803120277	2.34666624309934	-5.89380231812637	6.735854271599355	6.735854271599313	1.0729965237327	-0.05413244499518933	0.576168394720648	-0.3497761158481678	-5.71356930463486e-08	7.914605313959468e-08	2.11622949040021e-07	5.365124201777514e-08	-1.975531633436805e-07	-8.159755474918092e-08	-1.721347800778977e-08
